PathFileType  4	(X/Y/Z) C:\Users\antoi\Documents\MyRepositories\mobilecap\ResultsAnalysis
DataRate	CameraRate	NumFrames	NumMarkers	Units	OrigDataRate	OrigDataStartFrame	OrigNumFrames
100.0	100.0	5	51	mm	100.0	70	184
Frame#	Time	r_knee			r_shank_antsup			r_ankle			r_calc			r_5meta			r_toe			L_knee			L_shank_antsup			L_ankle			L_calc			L_5meta			L_toe			r_sh2			r_sh3			r_sh4			L_sh2			L_sh3			r_thigh1			r_thigh2			r_thigh3			r_thigh4			r_thigh5			L_thigh1			L_thigh2			L_thigh3			L_thigh4			r.ASIS			r.PSIS			L.ASIS			L.PSIS			C7			R_Shoulder			L_Shoulder			R_Sternum			L_Sternum			R_humerus			R_elbow_med			R_elbow_lat			R_forearm			R_wrist_radius			R_wrist_ulna			L_humerus			L_elbow_med			L_elbow_lat			L_forearm			L_wrist_radius			L_wrist_ulna			R_HJC			L_HJC			R_HJC_reg			L_HJC_reg			
		X1	Y1	Z1	X2	Y2	Z2	X3	Y3	Z3	X4	Y4	Z4	X5	Y5	Z5	X6	Y6	Z6	X7	Y7	Z7	X8	Y8	Z8	X9	Y9	Z9	X10	Y10	Z10	X11	Y11	Z11	X12	Y12	Z12	X13	Y13	Z13	X14	Y14	Z14	X15	Y15	Z15	X16	Y16	Z16	X17	Y17	Z17	X18	Y18	Z18	X19	Y19	Z19	X20	Y20	Z20	X21	Y21	Z21	X22	Y22	Z22	X23	Y23	Z23	X24	Y24	Z24	X25	Y25	Z25	X26	Y26	Z26	X27	Y27	Z27	X28	Y28	Z28	X29	Y29	Z29	X30	Y30	Z30	X31	Y31	Z31	X32	Y32	Z32	X33	Y33	Z33	X34	Y34	Z34	X35	Y35	Z35	X36	Y36	Z36	X37	Y37	Z37	X38	Y38	Z38	X39	Y39	Z39	X40	Y40	Z40	X41	Y41	Z41	X42	Y42	Z42	X43	Y43	Z43	X44	Y44	Z44	X45	Y45	Z45	X46	Y46	Z46	X47	Y47	Z47	X48	Y48	Z48	X49	Y49	Z49	X50	Y50	Z50	X51	Y51	Z51	

70	0.69000000	316.88471	592.91545	-97.13964	296.31761	440.81979	-117.57288	107.16159	124.69728	-153.38053	50.10848	114.20632	-218.99782	227.25795	43.19932	-118.41541	274.31497	60.71235	-166.09340	599.13932	599.84599	-376.70298	715.04289	440.63680	-359.77487	772.90408	128.77907	-346.17285	736.99606	80.63289	-278.95124	942.49604	110.96491	-367.61747	957.76137	170.19407	-320.07257	257.61146	336.20588	-134.95345	234.79765	453.73243	-74.54596	191.64004	349.82362	-84.07811	643.36801	416.83725	-405.68192	682.41730	306.20774	-385.27941	430.33134	865.69190	-44.67994	420.53239	754.81127	-56.30869	354.09174	739.64605	-49.67912	316.89055	881.52382	-62.26792	302.33189	764.50593	-65.90185	464.62346	870.65001	-402.31544	505.08876	738.10165	-402.58978	568.60100	895.85674	-387.20348	605.37570	766.51222	-381.28362	529.62508	1152.01746	-83.17424	341.24556	1185.06345	-169.74046	517.13031	1139.10303	-361.23429	336.85939	1182.60047	-262.23131	401.17927	1666.11875	-269.40983	471.49260	1625.68217	-88.83945	471.94057	1609.93188	-443.94882	537.64494	1575.60627	-230.80015	541.20850	1572.86308	-286.92348	418.76286	1369.20271	9.37259	309.11014	1271.36617	-10.93305	328.07756	1297.02767	56.80332	402.90900	1097.62955	97.70224	428.28908	1005.76417	103.64140	398.83608	1006.69953	127.44474	481.09665	1306.65578	-472.52737	391.39947	1236.42637	-424.50658	412.95517	1224.94080	-495.35513	499.89446	1037.19294	-505.78529	535.53772	966.09568	-494.23060	505.12400	960.86656	-514.65963	447.62384	1057.57778	-116.95043	434.01055	1052.56490	-313.89343	456.22387	1065.91081	-117.50221	447.51541	1061.01983	-301.13589	
71	0.70000000	325.18654	593.05637	-96.25601	302.44729	441.03322	-116.82201	109.02806	127.42918	-153.06673	51.91841	118.04498	-218.78499	227.62359	43.33995	-118.31904	275.03475	60.23107	-165.84221	608.63683	598.07798	-375.37523	723.26558	437.74331	-358.15825	778.11227	125.42650	-344.59220	741.80666	77.26870	-277.52857	947.67350	106.96114	-365.61633	962.98843	166.09589	-317.93135	262.46828	336.89886	-134.31239	241.13288	454.77525	-74.03199	196.53541	351.44279	-83.59545	651.47863	414.56919	-404.36075	689.34555	303.57550	-383.87573	439.37804	865.32881	-43.50933	429.22530	754.50913	-55.07142	362.81945	739.70605	-48.90278	326.15625	881.62760	-61.74383	311.28579	764.64840	-65.54230	475.41456	869.61558	-401.09653	515.48258	736.86783	-401.40903	579.42757	894.42946	-385.80196	615.73713	764.95054	-379.81137	540.14532	1151.66366	-82.08698	352.47181	1184.63925	-169.77815	529.22290	1137.34665	-360.41535	348.55668	1181.92428	-262.24359	413.18925	1664.90239	-273.58155	482.63421	1626.21830	-92.25753	484.77581	1607.09248	-447.28668	549.57554	1574.81196	-233.49422	553.41347	1571.59070	-289.57369	428.31941	1370.81204	7.75257	318.36508	1273.33466	-12.42478	337.14059	1299.37668	55.18056	410.26203	1099.76661	98.08787	434.78058	1007.67931	104.98917	405.19324	1009.19270	128.58155	493.57270	1303.55961	-473.26023	404.01449	1233.84649	-424.38583	425.20349	1221.77037	-495.22399	511.24710	1033.60740	-504.85167	545.61238	962.24783	-492.53915	515.53801	957.38999	-513.16203	458.20267	1057.21770	-115.89722	445.58242	1051.30598	-312.88180	466.91089	1065.14405	-116.57959	459.12773	1059.74490	-300.41876	
72	0.71000000	333.76058	593.17381	-95.37538	308.85238	441.27059	-116.05656	111.15442	130.45306	-152.72327	53.94032	122.13863	-218.62388	228.01292	43.50228	-118.21959	275.78263	59.71658	-165.55112	618.37033	596.38779	-374.00106	731.29005	434.58474	-356.43199	782.12871	121.77457	-343.02185	745.22789	73.78540	-276.10637	951.55166	102.12588	-363.64065	967.12800	161.00850	-315.69870	267.52886	337.63365	-133.66124	247.68198	455.91236	-73.56965	201.64937	353.17199	-83.15147	659.39275	412.27333	-403.03896	695.71713	300.81135	-382.47871	448.60239	865.01127	-42.30733	438.15588	754.23633	-53.79958	371.76891	739.77021	-48.17647	335.61659	881.72323	-61.35575	320.48606	764.79619	-65.31838	486.58273	868.72832	-399.91549	526.29029	735.79585	-400.26794	590.62947	893.16129	-384.41824	626.47244	763.54907	-378.34045	550.79593	1151.42558	-80.96592	363.81625	1184.16085	-169.79335	541.54044	1135.70056	-359.57236	360.41399	1181.22166	-262.22637	425.36330	1663.65733	-277.87153	493.92183	1626.80802	-95.80122	497.77966	1604.19930	-450.70753	561.68882	1574.01726	-236.28703	565.77924	1570.29434	-292.31794	437.90116	1372.52662	6.04505	327.64328	1275.45380	-14.04115	346.26038	1301.88225	53.42326	417.61707	1102.06868	98.37849	441.26142	1009.78971	106.33806	411.47024	1011.92105	129.63035	506.14494	1300.41672	-474.06386	416.70821	1231.26481	-424.34546	437.55856	1218.59348	-495.17223	522.68123	1030.00414	-503.92551	555.44251	958.19130	-490.68697	526.02497	953.91880	-511.68094	469.00630	1056.90163	-114.82952	457.41989	1050.09678	-311.84850	477.81369	1064.37528	-115.67977	471.04081	1058.52131	-299.73733	
73	0.72000000	342.55092	593.29589	-94.48668	315.52957	441.56619	-115.25373	113.53204	133.70200	-152.36447	56.22048	126.52407	-218.52273	228.43403	43.68805	-118.11079	276.52720	59.19121	-165.23380	628.08779	594.70409	-372.59001	739.03627	431.26452	-354.62999	785.35257	118.03260	-341.41450	747.71744	70.45619	-274.60462	954.52427	96.76723	-361.63539	970.55895	155.26099	-313.34182	272.78158	338.45350	-132.96599	254.40224	457.19074	-73.15456	206.95790	355.05600	-82.74358	667.03823	409.93987	-401.69113	701.65114	297.98404	-381.04884	458.00052	864.76563	-41.05127	447.28695	754.01796	-52.46843	380.89609	739.87849	-47.48782	345.27496	881.85439	-61.12173	329.89597	764.98916	-65.21480	498.06917	868.00253	-398.73532	537.30950	734.86925	-399.14377	602.19207	891.96002	-383.08649	637.42768	762.17803	-376.92000	561.62081	1151.31929	-79.81025	375.29945	1183.62343	-169.78820	554.14624	1134.20746	-358.67523	372.46328	1180.49430	-262.18093	437.68855	1662.37762	-282.28507	505.35318	1627.44607	-99.47897	510.94358	1601.23304	-454.20264	573.97113	1573.21192	-239.18313	578.29083	1568.96283	-295.16169	447.50841	1374.33303	4.23976	336.95594	1277.72266	-15.77266	355.44073	1304.54390	51.53855	424.96421	1104.54547	98.57263	447.74716	1012.11559	107.66021	417.71560	1014.87777	130.57194	518.82246	1297.22137	-474.93474	429.48939	1228.65969	-424.38269	450.00356	1215.39936	-495.20468	534.19338	1026.37751	-503.01576	565.40531	954.06826	-488.84285	536.68546	950.40616	-510.22361	480.08546	1056.63685	-113.74769	469.59199	1048.95972	-310.79466	488.98542	1063.62279	-114.81008	483.33169	1057.38090	-299.07999	
74	0.73000000	351.53975	593.46830	-93.57268	322.46932	441.96132	-114.38303	116.15581	137.10787	-152.00056	58.81506	131.23311	-218.47689	228.89428	43.89723	-117.98839	277.24608	58.68149	-164.93313	637.54201	592.98559	-371.16906	746.47474	427.94089	-352.78885	788.23866	114.42437	-339.73862	749.77135	67.57001	-272.97331	957.01927	91.18429	-359.57007	973.70826	149.16101	-310.84448	278.22548	339.41009	-132.18742	261.27661	458.65624	-72.76916	212.44672	357.14585	-82.36181	674.38647	407.60230	-400.28692	707.31540	295.20091	-379.54932	467.57271	864.62288	-39.72460	456.58785	753.88743	-51.05144	390.15641	740.07114	-46.81261	355.14327	882.06978	-61.05969	339.48900	765.27192	-65.21427	509.77407	867.45451	-397.51000	548.29191	734.07658	-398.01053	614.06100	890.73929	-381.84125	648.40935	760.71800	-375.61180	572.66510	1151.35655	-78.61596	386.95362	1183.04281	-169.77112	567.08926	1132.91425	-357.69434	384.73388	1179.76652	-262.11542	450.14792	1661.07197	-286.82546	516.93064	1628.13072	-103.29587	524.26177	1598.17774	-457.75887	586.38869	1572.39009	-242.18415	590.93190	1567.59855	-298.10826	457.15884	1376.22295	2.31707	346.31869	1280.13789	-17.61229	364.68012	1307.35915	49.53412	432.30364	1107.20458	98.66655	454.24568	1014.67459	108.91019	423.98630	1018.04089	131.38452	531.61534	1293.97301	-475.87078	442.35474	1226.01543	-424.50187	462.52577	1212.17589	-495.32372	545.77657	1022.72321	-502.13154	575.76650	949.99625	-487.13457	547.58098	946.81842	-508.79345	491.47776	1056.43785	-112.65597	482.15139	1047.92877	-309.72558	500.47819	1062.91229	-113.96661	496.04746	1056.36720	-298.42530	
